REM DIRINDEX 1\5,1\2\6,1\2\7,1\3\8,1\3\9,1\4\10,1\4\11,1\4\12
REM DIRNAME folder01,folder02,folder03,folder04,folder05,folder06,folder07,folder08,folder09,folder10,folder11,folder12
TITLE ""
FILE "EJE_DB3000_5th_5C_17.mp3" MP3
  TRACK 01 AUDIO
    TITLE "0:"
    INDEX 01 00:00:00
  TRACK 02 AUDIO
    TITLE "10:cjc026_10779"
    INDEX 01 00:00:05
  TRACK 03 AUDIO
    TITLE "0:"
    INDEX 01 00:01:07
  TRACK 04 AUDIO
    TITLE "11:cjc026_10780"
    INDEX 01 00:01:34
  TRACK 05 AUDIO
    TITLE "0:"
    INDEX 01 00:02:18
  TRACK 06 AUDIO
    TITLE "12:cjc026_10781"
    INDEX 01 00:02:42
  TRACK 07 AUDIO
    TITLE "0:"
    INDEX 01 00:03:45
  TRACK 08 AUDIO
    TITLE "10:cjc026_10782"
    INDEX 01 00:03:70
  TRACK 09 AUDIO
    TITLE "0:"
    INDEX 01 00:04:66
  TRACK 10 AUDIO
    TITLE "11:cjc026_10783"
    INDEX 01 00:05:16
  TRACK 11 AUDIO
    TITLE "0:"
    INDEX 01 00:06:08
  TRACK 12 AUDIO
    TITLE "12:cjc026_10784"
    INDEX 01 00:06:33
  TRACK 13 AUDIO
    TITLE "0:"
    INDEX 01 00:07:27
  TRACK 14 AUDIO
    TITLE "10:cjc026_10785"
    INDEX 01 00:07:56
  TRACK 15 AUDIO
    TITLE "0:"
    INDEX 01 00:08:54
  TRACK 16 AUDIO
    TITLE "11:cjc026_10786"
    INDEX 01 00:09:06
  TRACK 17 AUDIO
    TITLE "0:"
    INDEX 01 00:10:04
  TRACK 18 AUDIO
    TITLE "12:cjc026_10787"
    INDEX 01 00:10:29
  TRACK 19 AUDIO
    TITLE "0:"
    INDEX 01 00:11:27
  TRACK 20 AUDIO
    TITLE "10:cjc026_10788"
    INDEX 01 00:11:52
  TRACK 21 AUDIO
    TITLE "0:"
    INDEX 01 00:12:56
  TRACK 22 AUDIO
    TITLE "11:cjc026_10789"
    INDEX 01 00:13:06
  TRACK 23 AUDIO
    TITLE "0:"
    INDEX 01 00:14:02
  TRACK 24 AUDIO
    TITLE "12:cjc026_10790"
    INDEX 01 00:14:27
  TRACK 25 AUDIO
    TITLE "0:"
    INDEX 01 00:15:30
  TRACK 26 AUDIO
    TITLE "10:cjc026_10791"
    INDEX 01 00:15:54
  TRACK 27 AUDIO
    TITLE "0:"
    INDEX 01 00:16:57
  TRACK 28 AUDIO
    TITLE "11:cjc026_10792"
    INDEX 01 00:17:08
  TRACK 29 AUDIO
    TITLE "0:"
    INDEX 01 00:18:09
  TRACK 30 AUDIO
    TITLE "12:cjc026_10793"
    INDEX 01 00:18:33
  TRACK 31 AUDIO
    TITLE "0:"
    INDEX 01 00:19:38
  TRACK 32 AUDIO
    TITLE "10:cjc026_10794"
    INDEX 01 00:19:65
  TRACK 33 AUDIO
    TITLE "0:"
    INDEX 01 00:20:57
  TRACK 34 AUDIO
    TITLE "11:cjc026_10795"
    INDEX 01 00:21:08
  TRACK 35 AUDIO
    TITLE "0:"
    INDEX 01 00:22:03
  TRACK 36 AUDIO
    TITLE "12:cjc026_10796"
    INDEX 01 00:22:30
  TRACK 37 AUDIO
    TITLE "0:"
    INDEX 01 00:23:22
  TRACK 38 AUDIO
    TITLE "10:cjc026_10797"
    INDEX 01 00:23:48
  TRACK 39 AUDIO
    TITLE "0:"
    INDEX 01 00:24:47
  TRACK 40 AUDIO
    TITLE "11:cjc026_10798"
    INDEX 01 00:24:72
  TRACK 41 AUDIO
    TITLE "0:"
    INDEX 01 00:26:20
  TRACK 42 AUDIO
    TITLE "12:cjc026_10799"
    INDEX 01 00:26:44
  TRACK 43 AUDIO
    TITLE "0:"
    INDEX 01 00:27:43
  TRACK 44 AUDIO
    TITLE "10:cjc026_10800"
    INDEX 01 00:27:71
  TRACK 45 AUDIO
    TITLE "0:"
    INDEX 01 00:28:74
  TRACK 46 AUDIO
    TITLE "11:cjc026_10801"
    INDEX 01 00:29:27
  TRACK 47 AUDIO
    TITLE "0:"
    INDEX 01 00:30:30
  TRACK 48 AUDIO
    TITLE "12:cjc026_10802"
    INDEX 01 00:30:59
  TRACK 49 AUDIO
    TITLE "0:"
    INDEX 01 00:31:63
  TRACK 50 AUDIO
    TITLE "10:cjc026_10803"
    INDEX 01 00:32:13
  TRACK 51 AUDIO
    TITLE "0:"
    INDEX 01 00:33:24
  TRACK 52 AUDIO
    TITLE "11:cjc026_10804"
    INDEX 01 00:33:52
  TRACK 53 AUDIO
    TITLE "0:"
    INDEX 01 00:34:65
  TRACK 54 AUDIO
    TITLE "12:cjc026_10805"
    INDEX 01 00:35:14
  TRACK 55 AUDIO
    TITLE "0:"
    INDEX 01 00:36:25
  TRACK 56 AUDIO
    TITLE "10:cjc026_10806"
    INDEX 01 00:36:52
  TRACK 57 AUDIO
    TITLE "0:"
    INDEX 01 00:37:40
  TRACK 58 AUDIO
    TITLE "11:cjc026_10807"
    INDEX 01 00:37:67
  TRACK 59 AUDIO
    TITLE "0:"
    INDEX 01 00:38:67
  TRACK 60 AUDIO
    TITLE "12:cjc026_10808"
    INDEX 01 00:39:17
  TRACK 61 AUDIO
    TITLE "0:"
    INDEX 01 00:40:05
  TRACK 62 AUDIO
    TITLE "10:cjc026_10809"
    INDEX 01 00:40:32
  TRACK 63 AUDIO
    TITLE "0:"
    INDEX 01 00:41:16
  TRACK 64 AUDIO
    TITLE "11:cjc026_10810"
    INDEX 01 00:41:44
  TRACK 65 AUDIO
    TITLE "0:"
    INDEX 01 00:42:29
  TRACK 66 AUDIO
    TITLE "12:cjc026_10811"
    INDEX 01 00:42:55
  TRACK 67 AUDIO
    TITLE "0:"
    INDEX 01 00:43:40
  TRACK 68 AUDIO
    TITLE "10:cjc026_10812"
    INDEX 01 00:43:68
  TRACK 69 AUDIO
    TITLE "0:"
    INDEX 01 00:44:65
  TRACK 70 AUDIO
    TITLE "11:cjc026_10813"
    INDEX 01 00:45:16
  TRACK 71 AUDIO
    TITLE "0:"
    INDEX 01 00:46:13
  TRACK 72 AUDIO
    TITLE "12:cjc026_10814"
    INDEX 01 00:46:41
  TRACK 73 AUDIO
    TITLE "0:"
    INDEX 01 00:47:38
  TRACK 74 AUDIO
    TITLE "10:cjc026_10815"
    INDEX 01 00:47:64
  TRACK 75 AUDIO
    TITLE "0:"
    INDEX 01 00:48:59
  TRACK 76 AUDIO
    TITLE "11:cjc026_10816"
    INDEX 01 00:49:12
  TRACK 77 AUDIO
    TITLE "0:"
    INDEX 01 00:50:03
  TRACK 78 AUDIO
    TITLE "12:cjc026_10817"
    INDEX 01 00:50:31
  TRACK 79 AUDIO
    TITLE "0:"
    INDEX 01 00:51:24
  TRACK 80 AUDIO
    TITLE "10:cjc026_10818"
    INDEX 01 00:51:52
  TRACK 81 AUDIO
    TITLE "0:"
    INDEX 01 00:52:61
  TRACK 82 AUDIO
    TITLE "11:cjc026_10819"
    INDEX 01 00:53:09
  TRACK 83 AUDIO
    TITLE "0:"
    INDEX 01 00:54:62
  TRACK 84 AUDIO
    TITLE "12:cjc026_10820"
    INDEX 01 00:55:12
  TRACK 85 AUDIO
    TITLE "0:"
    INDEX 01 00:56:22
  TRACK 86 AUDIO
    TITLE "10:cjc026_10821"
    INDEX 01 00:56:45
  TRACK 87 AUDIO
    TITLE "0:"
    INDEX 01 00:57:58
  TRACK 88 AUDIO
    TITLE "11:cjc026_10822"
    INDEX 01 00:58:07
  TRACK 89 AUDIO
    TITLE "0:"
    INDEX 01 00:59:12
  TRACK 90 AUDIO
    TITLE "12:cjc026_10823"
    INDEX 01 00:59:36
  TRACK 91 AUDIO
    TITLE "0:"
    INDEX 01 01:00:49
